<svg width="187" height="326" viewBox="0 0 187 326" fill="none" xmlns="http://www.w3.org/2000/svg">
<path d="M186.272 144.474H0.0327759V161.416H186.272V144.474Z" fill="#1488CA"/>
<path d="M186.272 309.091H0.0327759V326H186.272V309.091Z" fill="#1488CA"/>
<path fill-rule="evenodd" clip-rule="evenodd" d="M119.062 110.723V0H101.71V127.565H186.273V110.723H119.062Z" fill="#1488CA"/>
<path fill-rule="evenodd" clip-rule="evenodd" d="M67.5147 44.356H0V61.4981H67.5147V110.723H0V127.632H84.5621V44.256L67.5147 44.356Z" fill="#1488CA"/>
<path d="M186.272 44.3562H136.143V93.8482H186.272V44.3562Z" fill="#1488CA"/>
<path fill-rule="evenodd" clip-rule="evenodd" d="M56.0702 13.7742C56.0702 16.4852 55.2565 19.1353 53.7319 21.3894C52.2074 23.6435 50.0406 25.4004 47.5054 26.4378C44.9702 27.4753 42.1805 27.7467 39.4891 27.2179C36.7978 26.689 34.3257 25.3835 32.3853 23.4666C30.445 21.5496 29.1236 19.1072 28.5882 16.4483C28.0529 13.7894 28.3277 11.0334 29.3778 8.5288C30.4279 6.02417 32.2061 3.88342 34.4877 2.37728C36.7694 0.871134 39.4519 0.0672405 42.196 0.0672405C44.0192 0.0628418 45.8253 0.41437 47.5106 1.10165C49.1959 1.78894 50.7272 2.79844 52.0165 4.07213C53.3057 5.34582 54.3274 6.85861 55.0231 8.52361C55.7188 10.1886 56.0746 11.973 56.0702 13.7742Z" fill="white"/>
<path fill-rule="evenodd" clip-rule="evenodd" d="M0.0327759 178.358H11.9491V195.033C13.4344 192.765 14.7848 191.031 15.595 189.83L24.1356 178.491H36.1532V209.707H24.2705V193.032C23.1903 194.766 22.0763 196.367 20.8948 198.101L12.1854 209.707H0.0327759V178.358Z" fill="white"/>
<path fill-rule="evenodd" clip-rule="evenodd" d="M77.1354 178.358V209.574H65.0841V197.301H52.9315V209.574H41.0151V178.358H52.9315V189.163H65.0841V178.358H77.1354Z" fill="white"/>
<path fill-rule="evenodd" clip-rule="evenodd" d="M105.389 186.495V209.574H93.3711V186.495H81.9949V178.358H116.63V186.495H105.389Z" fill="white"/>
<path fill-rule="evenodd" clip-rule="evenodd" d="M132.059 197.301V201.436H151.368V209.574H121.493V178.358H150.828V186.495H132.059V190.364H148.263V197.301H132.059Z" fill="white"/>
<path fill-rule="evenodd" clip-rule="evenodd" d="M166.254 200.102V209.707H155.688V178.491H172.195C174.004 178.448 175.813 178.582 177.596 178.891C178.876 179.206 180.103 179.701 181.242 180.359C182.798 181.298 184.07 182.634 184.921 184.228C185.843 185.808 186.31 187.607 186.272 189.43C186.352 190.909 186.09 192.387 185.505 193.751C184.92 195.115 184.027 196.329 182.896 197.301C180.112 199.303 176.713 200.293 173.275 200.102H166.254ZM166.254 186.095V192.765H171.52C172.725 192.9 173.936 192.565 174.895 191.831C175.248 191.509 175.526 191.116 175.712 190.679C175.899 190.242 175.988 189.771 175.976 189.297C175.988 188.823 175.899 188.351 175.712 187.914C175.526 187.477 175.248 187.084 174.895 186.762C173.896 186.121 172.705 185.838 171.52 185.962L166.254 186.095Z" fill="white"/>
<path fill-rule="evenodd" clip-rule="evenodd" d="M47.5294 219.679V250.928H35.3429V232.652L28.5915 250.928H18.9369L12.1854 232.652V250.928H0.0327759V219.679H17.8904L23.8654 236.354L30.0768 219.679H47.5294Z" fill="white"/>
<path fill-rule="evenodd" clip-rule="evenodd" d="M62.8216 238.655V242.791H81.0843V250.928H52.2893V219.679H81.0843V227.85H62.8216V231.718H81.0843V238.655H62.8216Z" fill="white"/>
<path fill-rule="evenodd" clip-rule="evenodd" d="M108.395 227.85V250.928H97.0186V227.85H86.0813V219.679H119.062V227.85H108.395Z" fill="white"/>
<path fill-rule="evenodd" clip-rule="evenodd" d="M12.1854 292.149H0.0327759V260.9H26.161V269.038H12.1854V292.149Z" fill="white"/>
<path fill-rule="evenodd" clip-rule="evenodd" d="M41.5553 282.544V292.149H31.0229V260.9H47.5303C49.3397 260.857 51.1489 260.991 52.9315 261.3C54.2114 261.615 55.439 262.109 56.5773 262.768C58.1103 263.747 59.3706 265.091 60.2433 266.675C61.116 268.26 61.5732 270.035 61.5734 271.839C61.6564 273.323 61.3954 274.807 60.8104 276.176C60.2255 277.546 59.3319 278.766 58.1977 279.743C55.4294 281.751 52.0389 282.741 48.6106 282.544H41.5553ZM41.5553 268.504V275.341H46.8551C48.0651 275.466 49.2766 275.119 50.2309 274.373C50.583 274.051 50.8615 273.658 51.0478 273.221C51.2341 272.784 51.3238 272.313 51.3111 271.839C51.3238 271.365 51.2341 270.894 51.0478 270.456C50.8615 270.019 50.583 269.627 50.2309 269.304C49.2317 268.663 48.04 268.381 46.8551 268.504H41.5553Z" fill="white"/>
<path fill-rule="evenodd" clip-rule="evenodd" d="M103.972 260.9L83.5491 292.149H69.2022L75.9537 282.144L62.822 260.9H77.0001L83.3802 272.239L90.1317 260.9H103.972Z" fill="white"/>
<path fill-rule="evenodd" clip-rule="evenodd" d="M146.473 260.9V292.149H134.591V269.038H122.404V292.149H110.387V260.9H146.473Z" fill="white"/>
<path fill-rule="evenodd" clip-rule="evenodd" d="M186.272 260.9V292.149H175.301V269.038H164.094V292.149H153.123V260.9H186.272Z" fill="white"/>
<path d="M186.238 219.712H132.699V250.962H186.238V219.712Z" fill="#1488CA"/>
</svg>
